<svg xmlns="http://www.w3.org/2000/svg" xmlns:xlink="http://www.w3.org/1999/xlink" width="1080" zoomAndPan="magnify" viewBox="0 0 810 809.999993" height="1080" preserveAspectRatio="xMidYMid meet" version="1.0"><defs><g/><clipPath id="ba841268f1"><path d="M 280 205.71875 L 530 205.71875 L 530 427 L 280 427 Z M 280 205.71875 " clip-rule="nonzero"/></clipPath><clipPath id="586fd4a9fd"><path d="M 225.066406 421 L 585 421 L 585 431.335938 L 225.066406 431.335938 Z M 225.066406 421 " clip-rule="nonzero"/></clipPath></defs><rect x="-81" width="972" fill="#ffffff" y="-80.999999" height="971.999992" fill-opacity="1"/><rect x="-81" width="972" fill="#ffffff" y="-80.999999" height="971.999992" fill-opacity="1"/><path fill="#808080" d="M 408.648438 232.886719 L 408.023438 231.808594 L 402.113281 231.808594 L 401.488281 232.886719 Z M 408.648438 232.886719 " fill-opacity="1" fill-rule="evenodd"/><path fill="#808080" d="M 412.84375 240.140625 L 412.21875 239.0625 L 397.917969 239.0625 L 397.296875 240.140625 Z M 412.84375 240.140625 " fill-opacity="1" fill-rule="evenodd"/><path fill="#808080" d="M 417.035156 247.394531 L 416.414062 246.3125 L 393.722656 246.3125 L 393.101562 247.394531 Z M 417.035156 247.394531 " fill-opacity="1" fill-rule="evenodd"/><path fill="#808080" d="M 421.230469 254.648438 L 420.605469 253.570312 L 389.53125 253.570312 L 388.90625 254.648438 Z M 421.230469 254.648438 " fill-opacity="1" fill-rule="evenodd"/><path fill="#808080" d="M 425.421875 261.898438 L 424.800781 260.820312 L 385.335938 260.820312 L 384.714844 261.898438 Z M 425.421875 261.898438 " fill-opacity="1" fill-rule="evenodd"/><path fill="#808080" d="M 429.617188 269.152344 L 428.992188 268.074219 L 381.144531 268.074219 L 380.519531 269.152344 Z M 429.617188 269.152344 " fill-opacity="1" fill-rule="evenodd"/><path fill="#808080" d="M 433.808594 276.40625 L 433.1875 275.328125 L 376.949219 275.328125 L 376.328125 276.40625 Z M 433.808594 276.40625 " fill-opacity="1" fill-rule="evenodd"/><path fill="#808080" d="M 438.003906 283.660156 L 437.378906 282.582031 L 372.757812 282.582031 L 372.132812 283.660156 Z M 438.003906 283.660156 " fill-opacity="1" fill-rule="evenodd"/><path fill="#808080" d="M 442.199219 290.914062 L 441.574219 289.835938 L 368.5625 289.835938 L 367.9375 290.914062 Z M 442.199219 290.914062 " fill-opacity="1" fill-rule="evenodd"/><path fill="#808080" d="M 446.390625 298.167969 L 445.769531 297.089844 L 364.367188 297.089844 L 363.746094 298.167969 Z M 446.390625 298.167969 " fill-opacity="1" fill-rule="evenodd"/><path fill="#808080" d="M 450.585938 305.417969 L 449.964844 304.34375 L 360.175781 304.34375 L 359.550781 305.417969 Z M 450.585938 305.417969 " fill-opacity="1" fill-rule="evenodd"/><path fill="#808080" d="M 454.777344 312.675781 L 454.15625 311.59375 L 355.980469 311.59375 L 355.359375 312.675781 Z M 454.777344 312.675781 " fill-opacity="1" fill-rule="evenodd"/><path fill="#808080" d="M 458.972656 319.929688 L 458.351562 318.851562 L 351.789062 318.851562 L 351.164062 319.929688 Z M 458.972656 319.929688 " fill-opacity="1" fill-rule="evenodd"/><path fill="#808080" d="M 463.167969 327.179688 L 462.542969 326.101562 L 347.59375 326.101562 L 346.96875 327.179688 Z M 463.167969 327.179688 " fill-opacity="1" fill-rule="evenodd"/><path fill="#808080" d="M 467.359375 334.433594 L 466.734375 333.355469 L 343.398438 333.355469 L 342.777344 334.433594 Z M 467.359375 334.433594 " fill-opacity="1" fill-rule="evenodd"/><path fill="#808080" d="M 471.554688 341.6875 L 470.929688 340.609375 L 339.207031 340.609375 L 338.582031 341.6875 Z M 471.554688 341.6875 " fill-opacity="1" fill-rule="evenodd"/><path fill="#808080" d="M 475.746094 348.941406 L 475.125 347.863281 L 335.011719 347.863281 L 334.386719 348.941406 Z M 475.746094 348.941406 " fill-opacity="1" fill-rule="evenodd"/><path fill="#808080" d="M 479.941406 356.195312 L 479.316406 355.117188 L 330.820312 355.117188 L 330.195312 356.195312 Z M 479.941406 356.195312 " fill-opacity="1" fill-rule="evenodd"/><path fill="#808080" d="M 484.136719 363.449219 L 483.511719 362.371094 L 326.625 362.371094 L 326 363.449219 Z M 484.136719 363.449219 " fill-opacity="1" fill-rule="evenodd"/><path fill="#808080" d="M 488.328125 370.703125 L 487.707031 369.625 L 322.429688 369.625 L 321.808594 370.703125 Z M 488.328125 370.703125 " fill-opacity="1" fill-rule="evenodd"/><path fill="#808080" d="M 492.523438 377.957031 L 491.898438 376.878906 L 318.238281 376.878906 L 317.613281 377.957031 Z M 492.523438 377.957031 " fill-opacity="1" fill-rule="evenodd"/><path fill="#808080" d="M 496.71875 385.207031 L 496.09375 384.128906 L 314.042969 384.128906 L 313.417969 385.207031 Z M 496.71875 385.207031 " fill-opacity="1" fill-rule="evenodd"/><path fill="#808080" d="M 500.910156 392.460938 L 500.289062 391.382812 L 309.847656 391.382812 L 309.226562 392.460938 Z M 500.910156 392.460938 " fill-opacity="1" fill-rule="evenodd"/><path fill="#808080" d="M 505.105469 399.71875 L 504.480469 398.640625 L 305.65625 398.640625 L 305.03125 399.71875 Z M 505.105469 399.71875 " fill-opacity="1" fill-rule="evenodd"/><path fill="#808080" d="M 509.296875 406.96875 L 508.675781 405.890625 L 301.460938 405.890625 L 300.839844 406.96875 Z M 509.296875 406.96875 " fill-opacity="1" fill-rule="evenodd"/><path fill="#808080" d="M 513.492188 414.222656 L 512.867188 413.144531 L 297.269531 413.144531 L 296.644531 414.222656 Z M 513.492188 414.222656 " fill-opacity="1" fill-rule="evenodd"/><path fill="#ffffff" d="M 358.457031 340.609375 L 450.515625 340.609375 L 450.515625 421.265625 L 358.457031 421.265625 Z M 358.457031 340.609375 " fill-opacity="1" fill-rule="evenodd"/><path fill="#ffffff" d="M 384.847656 268.214844 L 425.289062 268.214844 L 425.289062 310.367188 L 384.847656 310.367188 Z M 384.847656 268.214844 " fill-opacity="1" fill-rule="evenodd"/><g clip-path="url(#ba841268f1)"><path fill="#1a1a1a" d="M 403.847656 224.585938 L 287.691406 425.488281 L 289.523438 426.539062 L 405.070312 226.695312 L 520.613281 426.539062 L 522.445312 425.488281 L 406.289062 224.585938 L 405.070312 222.476562 Z M 406.898438 223.53125 L 523.359375 424.960938 L 529.765625 421.265625 L 411.171875 216.140625 L 409.949219 214.03125 L 409.339844 212.976562 L 405.070312 205.585938 L 400.796875 212.976562 L 400.1875 214.03125 L 398.964844 216.140625 L 280.367188 421.265625 L 286.777344 424.960938 L 403.238281 223.53125 L 404.457031 221.417969 L 405.070312 220.363281 L 405.679688 221.417969 Z M 406.898438 223.53125 " fill-opacity="1" fill-rule="evenodd"/></g><g clip-path="url(#586fd4a9fd)"><path fill="#1a1a1a" d="M 230.335938 421.265625 L 579.796875 421.265625 C 582.570312 421.265625 584.832031 423.527344 584.832031 426.292969 L 584.832031 431.320312 L 225.300781 431.320312 L 225.300781 426.292969 C 225.300781 423.527344 227.566406 421.265625 230.335938 421.265625 " fill-opacity="1" fill-rule="evenodd"/></g><path fill="#1a1a1a" d="M 423.71875 269.785156 L 405.855469 269.785156 L 405.855469 308.796875 L 423.71875 308.796875 Z M 422.390625 271.113281 L 407.183594 271.113281 L 407.183594 307.46875 L 422.390625 307.46875 Z M 406.738281 270.222656 L 423.28125 270.222656 L 423.28125 308.359375 L 406.292969 308.359375 L 406.292969 270.222656 Z M 404.285156 308.796875 L 404.285156 269.785156 L 386.417969 269.785156 L 386.417969 308.796875 Z M 387.300781 270.222656 L 403.84375 270.222656 L 403.84375 308.359375 L 386.855469 308.359375 L 386.855469 270.222656 Z M 402.953125 271.113281 L 387.746094 271.113281 L 387.746094 307.46875 L 402.953125 307.46875 Z M 405.070312 268.214844 L 425.289062 268.214844 L 425.289062 310.367188 L 384.847656 310.367188 L 384.847656 268.214844 Z M 405.070312 268.214844 " fill-opacity="1" fill-rule="nonzero"/><path fill="#1a1a1a" d="M 402.199219 274.425781 L 402.199219 271.84375 L 388.457031 271.84375 L 388.457031 288.144531 Z M 402.199219 285.929688 L 402.199219 283.4375 L 388.457031 297.15625 L 388.457031 299.652344 Z M 402.199219 306.738281 L 402.199219 290.4375 L 388.457031 304.15625 L 388.457031 306.738281 Z M 402.199219 306.738281 " fill-opacity="1" fill-rule="evenodd"/><path fill="#1a1a1a" d="M 421.679688 274.425781 L 421.679688 271.84375 L 407.9375 271.84375 L 407.9375 288.144531 Z M 421.679688 285.929688 L 421.679688 283.4375 L 407.9375 297.15625 L 407.9375 299.652344 Z M 421.679688 306.738281 L 421.679688 290.4375 L 407.9375 304.15625 L 407.9375 306.738281 Z M 421.679688 306.738281 " fill-opacity="1" fill-rule="evenodd"/><path fill="#332c2b" d="M 419.714844 350.484375 L 407.796875 350.484375 L 407.796875 384.042969 L 419.714844 384.042969 Z M 432.574219 350.484375 L 420.65625 350.484375 L 420.65625 384.042969 L 432.574219 384.042969 Z M 407.796875 418.539062 L 419.714844 418.539062 L 419.714844 384.984375 L 407.796875 384.984375 Z M 420.65625 418.539062 L 432.574219 418.539062 L 432.574219 384.984375 L 420.65625 384.984375 Z M 433.042969 419.484375 L 406.855469 419.484375 L 406.855469 349.542969 L 433.515625 349.542969 L 433.515625 419.484375 Z M 375.621094 420.480469 L 404.28125 420.480469 L 404.28125 348.546875 L 375.621094 348.546875 Z M 404.285156 422.046875 L 374.050781 422.046875 L 374.050781 346.976562 L 436.089844 346.976562 L 436.089844 422.046875 Z M 402.339844 350.484375 L 390.421875 350.484375 L 390.421875 384.042969 L 402.339844 384.042969 Z M 389.480469 350.484375 L 377.5625 350.484375 L 377.5625 384.042969 L 389.480469 384.042969 Z M 390.421875 418.539062 L 402.339844 418.539062 L 402.339844 384.984375 L 390.421875 384.984375 Z M 389.480469 419.484375 L 376.621094 419.484375 L 376.621094 349.542969 L 403.28125 349.542969 L 403.28125 419.484375 Z M 377.5625 418.539062 L 389.480469 418.539062 L 389.480469 384.984375 L 377.5625 384.984375 Z M 405.855469 420.480469 L 434.515625 420.480469 L 434.515625 348.546875 L 405.855469 348.546875 Z M 405.855469 420.480469 " fill-opacity="1" fill-rule="nonzero"/><path fill="#1a1a1a" d="M 388.652344 353.722656 L 388.652344 351.3125 L 378.394531 351.3125 L 378.394531 363.960938 Z M 388.652344 365.675781 L 388.652344 363.492188 L 378.394531 373.734375 L 378.394531 375.917969 Z M 388.652344 383.214844 L 388.652344 370.5625 L 378.394531 380.804688 L 378.394531 383.214844 Z M 388.652344 383.214844 " fill-opacity="1" fill-rule="evenodd"/><path fill="#1a1a1a" d="M 401.535156 353.722656 L 401.535156 351.3125 L 391.277344 351.3125 L 391.277344 363.960938 Z M 401.535156 365.675781 L 401.535156 363.492188 L 391.277344 373.734375 L 391.277344 375.917969 Z M 401.535156 383.214844 L 401.535156 370.5625 L 391.277344 380.804688 L 391.277344 383.214844 Z M 401.535156 383.214844 " fill-opacity="1" fill-rule="evenodd"/><path fill="#1a1a1a" d="M 418.882812 353.722656 L 418.882812 351.3125 L 408.628906 351.3125 L 408.628906 363.960938 Z M 418.882812 365.675781 L 418.882812 363.492188 L 408.625 373.734375 L 408.625 375.917969 Z M 418.882812 383.214844 L 418.882812 370.5625 L 408.625 380.804688 L 408.625 383.214844 Z M 418.882812 383.214844 " fill-opacity="1" fill-rule="evenodd"/><path fill="#1a1a1a" d="M 431.765625 353.722656 L 431.765625 351.3125 L 421.511719 351.3125 L 421.511719 363.960938 Z M 431.765625 365.675781 L 431.765625 363.492188 L 421.511719 373.734375 L 421.511719 375.917969 Z M 431.765625 383.214844 L 431.765625 370.5625 L 421.511719 380.804688 L 421.511719 383.214844 Z M 431.765625 383.214844 " fill-opacity="1" fill-rule="evenodd"/><path fill="#1a1a1a" d="M 388.652344 388.210938 L 388.652344 385.804688 L 378.394531 385.804688 L 378.394531 398.453125 Z M 388.652344 400.167969 L 388.652344 397.984375 L 378.394531 408.226562 L 378.394531 410.410156 Z M 388.652344 417.703125 L 388.652344 405.054688 L 378.394531 415.296875 L 378.394531 417.703125 Z M 388.652344 417.703125 " fill-opacity="1" fill-rule="evenodd"/><path fill="#1a1a1a" d="M 401.535156 388.210938 L 401.535156 385.804688 L 391.277344 385.804688 L 391.277344 398.453125 Z M 401.535156 400.167969 L 401.535156 397.984375 L 391.277344 408.226562 L 391.277344 410.410156 Z M 401.535156 417.703125 L 401.535156 405.054688 L 391.277344 415.296875 L 391.277344 417.703125 Z M 401.535156 417.703125 " fill-opacity="1" fill-rule="evenodd"/><path fill="#1a1a1a" d="M 418.882812 388.210938 L 418.882812 385.804688 L 408.628906 385.804688 L 408.628906 398.453125 Z M 418.882812 400.167969 L 418.882812 397.984375 L 408.625 408.226562 L 408.625 410.410156 Z M 418.882812 417.703125 L 418.882812 405.054688 L 408.625 415.296875 L 408.625 417.703125 Z M 418.882812 417.703125 " fill-opacity="1" fill-rule="evenodd"/><path fill="#1a1a1a" d="M 431.765625 388.210938 L 431.765625 385.804688 L 421.511719 385.804688 L 421.511719 398.453125 Z M 431.765625 400.167969 L 431.765625 397.984375 L 421.511719 408.226562 L 421.511719 410.410156 Z M 431.765625 417.703125 L 431.765625 405.054688 L 421.511719 415.296875 L 421.511719 417.703125 Z M 431.765625 417.703125 " fill-opacity="1" fill-rule="evenodd"/><path fill="#1a1a1a" d="M 349.804688 335.851562 L 460.335938 335.851562 L 460.335938 338.304688 L 461.585938 338.304688 C 462.257812 338.304688 462.8125 338.855469 462.8125 339.527344 L 462.8125 340.753906 L 347.324219 340.753906 L 347.324219 339.527344 C 347.324219 338.855469 347.878906 338.304688 348.550781 338.304688 L 349.804688 338.304688 Z M 349.804688 335.851562 " fill-opacity="1" fill-rule="evenodd"/><path fill="#1a1a1a" d="M 354.515625 339.085938 L 359.621094 339.085938 L 359.621094 423.1875 L 354.515625 423.1875 Z M 354.515625 339.085938 " fill-opacity="1" fill-rule="evenodd"/><path fill="#1a1a1a" d="M 450.515625 339.085938 L 455.621094 339.085938 L 455.621094 423.1875 L 450.515625 423.1875 Z M 450.515625 339.085938 " fill-opacity="1" fill-rule="evenodd"/><path fill="#ffffff" d="M 335.105469 391.210938 L 338.640625 391.210938 L 338.640625 422.378906 L 335.105469 422.378906 Z M 335.105469 391.210938 " fill-opacity="1" fill-rule="evenodd"/><path fill="#ffffff" d="M 368.972656 391.210938 L 372.503906 391.210938 L 372.503906 422.378906 L 368.972656 422.378906 Z M 368.972656 391.210938 " fill-opacity="1" fill-rule="evenodd"/><path fill="#ffffff" d="M 402.835938 391.210938 L 406.367188 391.210938 L 406.367188 422.378906 L 402.835938 422.378906 Z M 402.835938 391.210938 " fill-opacity="1" fill-rule="evenodd"/><path fill="#ffffff" d="M 436.703125 391.210938 L 440.234375 391.210938 L 440.234375 422.378906 L 436.703125 422.378906 Z M 436.703125 391.210938 " fill-opacity="1" fill-rule="evenodd"/><path fill="#ffffff" d="M 470.566406 391.210938 L 474.097656 391.210938 L 474.097656 422.378906 L 470.566406 422.378906 Z M 470.566406 391.210938 " fill-opacity="1" fill-rule="evenodd"/><path fill="#ffffff" d="M 331.589844 391.210938 L 477.617188 391.210938 L 477.617188 392.386719 L 331.589844 392.386719 Z M 331.589844 391.210938 " fill-opacity="1" fill-rule="evenodd"/><path fill="#ffffff" d="M 331.589844 398.707031 L 477.617188 398.707031 L 477.617188 399.886719 L 331.589844 399.886719 Z M 331.589844 398.707031 " fill-opacity="1" fill-rule="evenodd"/><path fill="#ffffff" d="M 331.589844 406.207031 L 477.617188 406.207031 L 477.617188 407.386719 L 331.589844 407.386719 Z M 331.589844 406.207031 " fill-opacity="1" fill-rule="evenodd"/><path fill="#ffffff" d="M 331.589844 413.707031 L 477.617188 413.707031 L 477.617188 414.882812 L 331.589844 414.882812 Z M 331.589844 413.707031 " fill-opacity="1" fill-rule="evenodd"/><path fill="#1a1a1a" d="M 335.570312 392.019531 L 339.105469 392.019531 L 339.105469 423.1875 L 335.570312 423.1875 Z M 335.570312 392.019531 " fill-opacity="1" fill-rule="evenodd"/><path fill="#1a1a1a" d="M 369.4375 392.019531 L 372.96875 392.019531 L 372.96875 423.1875 L 369.4375 423.1875 Z M 369.4375 392.019531 " fill-opacity="1" fill-rule="evenodd"/><path fill="#1a1a1a" d="M 403.300781 392.019531 L 406.835938 392.019531 L 406.835938 423.1875 L 403.300781 423.1875 Z M 403.300781 392.019531 " fill-opacity="1" fill-rule="evenodd"/><path fill="#1a1a1a" d="M 437.167969 392.019531 L 440.699219 392.019531 L 440.699219 423.1875 L 437.167969 423.1875 Z M 437.167969 392.019531 " fill-opacity="1" fill-rule="evenodd"/><path fill="#1a1a1a" d="M 471.03125 392.019531 L 474.5625 392.019531 L 474.5625 423.1875 L 471.03125 423.1875 Z M 471.03125 392.019531 " fill-opacity="1" fill-rule="evenodd"/><path fill="#1a1a1a" d="M 332.054688 392.019531 L 478.082031 392.019531 L 478.082031 393.195312 L 332.054688 393.195312 Z M 332.054688 392.019531 " fill-opacity="1" fill-rule="evenodd"/><path fill="#1a1a1a" d="M 332.054688 399.515625 L 478.082031 399.515625 L 478.082031 400.691406 L 332.054688 400.691406 Z M 332.054688 399.515625 " fill-opacity="1" fill-rule="evenodd"/><path fill="#1a1a1a" d="M 332.054688 407.015625 L 478.082031 407.015625 L 478.082031 408.191406 L 332.054688 408.191406 Z M 332.054688 407.015625 " fill-opacity="1" fill-rule="evenodd"/><path fill="#1a1a1a" d="M 332.054688 414.515625 L 478.082031 414.515625 L 478.082031 415.691406 L 332.054688 415.691406 Z M 332.054688 414.515625 " fill-opacity="1" fill-rule="evenodd"/><path fill="#1a1a1a" d="M 273.335938 391.046875 C 273.335938 391.042969 273.332031 391.039062 273.332031 391.035156 C 273.332031 391.035156 273.332031 391.039062 273.335938 391.046875 M 244.003906 372.875 C 249.015625 366.945312 250.59375 357.769531 250.59375 357.769531 C 247.902344 362.683594 250.964844 351.007812 247.066406 356.289062 C 243.167969 361.570312 246.789062 352.953125 244.746094 355.546875 C 242.707031 358.140625 242.332031 355.546875 242.332031 355.546875 C 246.695312 351.007812 253.652344 338.683594 252.632812 339.421875 C 251.613281 340.164062 250.40625 339.886719 250.40625 339.886719 C 255.789062 330.527344 259.597656 315.238281 259.597656 315.238281 C 259.597656 315.238281 263.398438 330.527344 268.785156 339.886719 C 268.785156 339.886719 267.578125 340.164062 266.554688 339.421875 C 265.539062 338.683594 272.496094 351.007812 276.859375 355.546875 C 276.859375 355.546875 276.484375 358.140625 274.445312 355.546875 C 272.40625 352.953125 276.023438 361.570312 272.125 356.289062 C 268.226562 351.007812 271.289062 362.679688 268.597656 357.769531 C 268.597656 357.769531 270.175781 366.945312 275.1875 372.875 C 275.1875 372.875 276.488281 374.726562 273.515625 372.875 C 270.546875 371.019531 279.175781 383.34375 286.136719 388.71875 C 286.136719 388.71875 285.117188 390.480469 282.609375 388.71875 C 280.105469 386.957031 284.652344 393.90625 280.292969 389.550781 C 275.929688 385.195312 278.808594 392.148438 275.558594 387.976562 C 272.316406 383.8125 275.460938 394.8125 273.335938 391.046875 C 273.574219 391.46875 280.640625 403.996094 284.65625 408.734375 C 284.65625 408.734375 282.398438 409.648438 281.199219 409.058594 C 283.113281 416.191406 284.019531 416.6875 291.007812 422.871094 L 228.1875 422.871094 C 235.175781 416.6875 236.078125 416.191406 237.992188 409.058594 C 236.792969 409.648438 234.539062 408.734375 234.539062 408.734375 C 238.550781 403.996094 245.617188 391.46875 245.851562 391.046875 C 243.730469 394.8125 246.875 383.8125 243.632812 387.976562 C 240.382812 392.148438 243.261719 385.195312 238.898438 389.550781 C 234.539062 393.90625 239.085938 386.957031 236.578125 388.71875 C 234.074219 390.480469 233.054688 388.71875 233.054688 388.71875 C 240.011719 383.34375 248.640625 371.019531 245.671875 372.875 C 242.703125 374.726562 244.003906 372.875 244.003906 372.875 Z M 245.855469 391.046875 C 245.855469 391.042969 245.859375 391.039062 245.859375 391.035156 C 245.859375 391.035156 245.859375 391.039062 245.855469 391.046875 Z M 237.992188 409.058594 C 238.273438 408.917969 238.5 408.699219 238.621094 408.363281 C 238.734375 408.054688 238.5 408.339844 237.992188 409.058594 Z M 281.195312 409.058594 C 280.917969 408.917969 280.691406 408.699219 280.566406 408.363281 C 280.457031 408.054688 280.691406 408.339844 281.195312 409.058594 Z M 281.195312 409.058594 " fill-opacity="1" fill-rule="evenodd"/><path fill="#1a1a1a" d="M 564.28125 391.046875 C 564.28125 391.042969 564.277344 391.039062 564.277344 391.035156 C 564.277344 391.035156 564.277344 391.039062 564.28125 391.046875 M 534.949219 372.875 C 539.960938 366.945312 541.539062 357.769531 541.539062 357.769531 C 538.847656 362.683594 541.910156 351.007812 538.011719 356.289062 C 534.117188 361.570312 537.730469 352.953125 535.691406 355.546875 C 533.648438 358.140625 533.277344 355.546875 533.277344 355.546875 C 537.640625 351.007812 544.597656 338.683594 543.578125 339.421875 C 542.558594 340.164062 541.351562 339.886719 541.351562 339.886719 C 546.734375 330.527344 550.539062 315.238281 550.539062 315.238281 C 550.539062 315.238281 554.34375 330.527344 559.726562 339.886719 C 559.726562 339.886719 558.523438 340.164062 557.5 339.421875 C 556.480469 338.683594 563.441406 351.007812 567.804688 355.546875 C 567.804688 355.546875 567.429688 358.140625 565.386719 355.546875 C 563.347656 352.953125 566.964844 361.570312 563.070312 356.289062 C 559.171875 351.007812 562.234375 362.679688 559.542969 357.769531 C 559.542969 357.769531 561.121094 366.945312 566.132812 372.875 C 566.132812 372.875 567.429688 374.726562 564.460938 372.875 C 561.492188 371.019531 570.121094 383.34375 577.082031 388.71875 C 577.082031 388.71875 576.058594 390.480469 573.554688 388.71875 C 571.050781 386.957031 575.597656 393.90625 571.234375 389.550781 C 566.875 385.195312 569.75 392.148438 566.503906 387.976562 C 563.257812 383.8125 566.402344 394.8125 564.28125 391.046875 C 564.515625 391.46875 571.582031 403.996094 575.597656 408.734375 C 575.597656 408.734375 573.34375 409.648438 572.140625 409.058594 C 574.054688 416.191406 574.960938 416.6875 581.949219 422.871094 L 519.128906 422.871094 C 526.117188 416.6875 527.023438 416.191406 528.9375 409.058594 C 527.738281 409.648438 525.480469 408.734375 525.480469 408.734375 C 529.496094 403.996094 536.558594 391.46875 536.796875 391.046875 C 534.675781 394.8125 537.820312 383.8125 534.578125 387.976562 C 531.328125 392.148438 534.207031 385.195312 529.84375 389.550781 C 525.484375 393.90625 530.03125 386.957031 527.523438 388.71875 C 525.019531 390.480469 523.996094 388.71875 523.996094 388.71875 C 530.957031 383.34375 539.585938 371.019531 536.617188 372.875 C 533.648438 374.726562 534.949219 372.875 534.949219 372.875 Z M 536.800781 391.046875 C 536.800781 391.042969 536.804688 391.039062 536.808594 391.035156 C 536.804688 391.035156 536.800781 391.039062 536.800781 391.046875 Z M 528.9375 409.058594 C 529.21875 408.917969 529.441406 408.699219 529.566406 408.363281 C 529.679688 408.054688 529.445312 408.339844 528.9375 409.058594 Z M 572.144531 409.058594 C 571.863281 408.917969 571.636719 408.699219 571.515625 408.363281 C 571.402344 408.054688 571.632812 408.339844 572.144531 409.058594 Z M 572.144531 409.058594 " fill-opacity="1" fill-rule="evenodd"/><path fill="#1a1a1a" d="M 317.261719 360.8125 C 312.570312 354.878906 311.078125 346.203125 311.078125 346.203125 C 313.769531 351.113281 310.707031 339.441406 314.605469 344.722656 C 318.5 350.003906 314.882812 341.386719 316.925781 343.980469 C 318.964844 346.574219 319.335938 343.980469 319.335938 343.980469 C 314.976562 339.441406 308.015625 327.113281 309.035156 327.855469 C 310.058594 328.597656 311.265625 328.320312 311.265625 328.320312 C 305.878906 318.960938 302.074219 303.671875 302.074219 303.671875 C 302.074219 303.671875 298.269531 318.960938 292.886719 328.320312 C 292.886719 328.320312 294.089844 328.597656 295.113281 327.855469 C 296.132812 327.113281 289.171875 339.441406 284.8125 343.980469 C 284.8125 343.980469 285.183594 346.574219 287.226562 343.980469 C 289.265625 341.386719 285.648438 350.003906 289.546875 344.722656 C 293.445312 339.441406 290.382812 351.113281 293.074219 346.203125 C 293.074219 346.203125 291.492188 355.378906 286.484375 361.304688 C 286.484375 361.304688 285.183594 363.160156 288.152344 361.304688 C 291.121094 359.453125 282.492188 371.777344 275.535156 377.148438 C 275.535156 377.148438 276.554688 378.914062 279.058594 377.148438 C 281.566406 375.390625 277.019531 382.339844 281.378906 377.984375 C 285.742188 373.628906 282.863281 380.582031 286.113281 376.410156 C 289.351562 372.25 286.21875 383.214844 288.324219 379.496094 C 288.113281 379.863281 285.832031 383.910156 283.164062 388.214844 C 284.316406 389.355469 285.484375 390.402344 286.601562 391.265625 C 286.601562 391.265625 285.582031 393.023438 283.078125 391.265625 C 280.570312 389.507812 285.117188 396.457031 280.757812 392.101562 C 280.742188 392.085938 280.730469 392.074219 280.714844 392.054688 C 279.390625 394.066406 278.09375 395.898438 277.015625 397.167969 C 277.015625 397.167969 279.273438 398.078125 280.472656 397.488281 C 279.929688 399.519531 279.464844 401.011719 278.921875 402.25 C 281.019531 405.640625 283.363281 409.210938 285.121094 411.285156 C 285.121094 411.285156 285.101562 411.292969 285.066406 411.304688 L 288.066406 411.304688 L 316.078125 362.859375 C 315.257812 361.457031 315.113281 360.753906 315.996094 361.304688 C 316.277344 361.480469 316.519531 361.621094 316.726562 361.734375 Z M 288.324219 379.496094 C 288.328125 379.488281 288.332031 379.484375 288.335938 379.480469 C 288.332031 379.484375 288.328125 379.488281 288.324219 379.496094 Z M 288.324219 379.496094 " fill-opacity="1" fill-rule="evenodd"/><path fill="#1a1a1a" d="M 492.871094 360.8125 C 497.566406 354.878906 499.058594 346.203125 499.058594 346.203125 C 496.367188 351.113281 499.429688 339.441406 495.53125 344.722656 C 491.636719 350.003906 495.253906 341.386719 493.210938 343.980469 C 491.171875 346.574219 490.800781 343.980469 490.800781 343.980469 C 495.160156 339.441406 502.121094 327.113281 501.101562 327.855469 C 500.078125 328.597656 498.875 328.320312 498.875 328.320312 C 504.257812 318.960938 508.0625 303.671875 508.0625 303.671875 C 508.0625 303.671875 511.867188 318.960938 517.25 328.320312 C 517.25 328.320312 516.042969 328.597656 515.023438 327.855469 C 514 327.113281 520.964844 339.441406 525.324219 343.980469 C 525.324219 343.980469 524.949219 346.574219 522.910156 343.980469 C 520.871094 341.386719 524.484375 350.003906 520.589844 344.722656 C 516.691406 339.441406 519.753906 351.113281 517.0625 346.203125 C 517.0625 346.203125 518.644531 355.378906 523.652344 361.304688 C 523.652344 361.304688 524.953125 363.160156 521.984375 361.304688 C 519.015625 359.453125 527.640625 371.777344 534.601562 377.148438 C 534.601562 377.148438 533.582031 378.914062 531.074219 377.148438 C 528.570312 375.390625 533.117188 382.339844 528.757812 377.984375 C 524.394531 373.628906 527.273438 380.582031 524.027344 376.410156 C 520.78125 372.25 523.917969 383.214844 521.8125 379.496094 C 522.023438 379.863281 524.304688 383.910156 526.972656 388.214844 C 525.816406 389.355469 524.652344 390.402344 523.53125 391.265625 C 523.53125 391.265625 524.554688 393.023438 527.058594 391.265625 C 529.566406 389.507812 525.019531 396.457031 529.378906 392.101562 C 529.390625 392.085938 529.40625 392.074219 529.421875 392.054688 C 530.75 394.066406 532.042969 395.898438 533.121094 397.167969 C 533.121094 397.167969 530.867188 398.078125 529.664062 397.488281 C 530.207031 399.519531 530.671875 401.011719 531.214844 402.25 C 529.117188 405.640625 526.773438 409.210938 525.015625 411.285156 C 525.015625 411.285156 525.035156 411.292969 525.070312 411.304688 L 522.066406 411.304688 L 494.058594 362.859375 C 494.882812 361.457031 495.023438 360.753906 494.140625 361.304688 C 493.859375 361.480469 493.617188 361.621094 493.410156 361.734375 Z M 521.8125 379.496094 C 521.808594 379.488281 521.804688 379.484375 521.804688 379.480469 C 521.804688 379.484375 521.808594 379.488281 521.8125 379.496094 Z M 521.8125 379.496094 " fill-opacity="1" fill-rule="evenodd"/><g fill="#1a1a1a" fill-opacity="1"><g transform="translate(143.380229, 508.140706)"><g><path d="M 9.21875 0 L 0 0 C 0.507812 -1.351562 0.84375 -2.796875 1 -4.328125 C 1.164062 -5.867188 1.25 -7.523438 1.25 -9.296875 L 1.25 -50.4375 L 0.28125 -52.390625 L 9.359375 -52.390625 L 26.828125 -18.578125 L 44.359375 -52.390625 L 53.71875 -52.390625 C 53.207031 -51.085938 52.867188 -49.65625 52.703125 -48.09375 C 52.546875 -46.539062 52.46875 -44.878906 52.46875 -43.109375 C 52.46875 -41.941406 52.46875 -40.226562 52.46875 -37.96875 C 52.46875 -35.707031 52.46875 -33.179688 52.46875 -30.390625 C 52.46875 -27.597656 52.46875 -24.800781 52.46875 -22 C 52.46875 -19.207031 52.46875 -16.679688 52.46875 -14.421875 C 52.46875 -12.160156 52.46875 -10.453125 52.46875 -9.296875 C 52.46875 -7.523438 52.546875 -5.867188 52.703125 -4.328125 C 52.867188 -2.796875 53.207031 -1.351562 53.71875 0 L 43.109375 0 C 43.617188 -1.351562 43.953125 -2.796875 44.109375 -4.328125 C 44.273438 -5.867188 44.359375 -7.523438 44.359375 -9.296875 L 44.359375 -46.453125 L 25.359375 -9.78125 L 22.28125 -9.78125 L 3.984375 -45.203125 L 3.984375 -12.5 C 3.984375 -11.007812 4.117188 -9.445312 4.390625 -7.8125 C 4.671875 -6.1875 5.195312 -4.6875 5.96875 -3.3125 C 6.738281 -1.9375 7.820312 -0.832031 9.21875 0 Z M 9.21875 0 "/></g></g></g><g fill="#1a1a1a" fill-opacity="1"><g transform="translate(201.489821, 508.140706)"><g><path d="M 41.21875 -52.390625 C 40.75 -51.085938 40.421875 -49.65625 40.234375 -48.09375 C 40.046875 -46.539062 39.953125 -44.878906 39.953125 -43.109375 L 39.953125 -19 C 39.953125 -15.320312 39.179688 -12.050781 37.640625 -9.1875 C 36.109375 -6.320312 33.898438 -4.070312 31.015625 -2.4375 C 28.128906 -0.8125 24.660156 0 20.609375 0 C 16.554688 0 13.085938 -0.859375 10.203125 -2.578125 C 7.316406 -4.304688 5.101562 -6.671875 3.5625 -9.671875 C 2.019531 -12.679688 1.25 -16.070312 1.25 -19.84375 L 1.25 -43.109375 C 1.25 -44.878906 1.164062 -46.539062 1 -48.09375 C 0.84375 -49.65625 0.507812 -51.085938 0 -52.390625 L 10.546875 -52.390625 C 10.078125 -51.085938 9.75 -49.65625 9.5625 -48.09375 C 9.382812 -46.539062 9.296875 -44.878906 9.296875 -43.109375 L 9.296875 -19.703125 C 9.296875 -17.796875 9.476562 -15.835938 9.84375 -13.828125 C 10.21875 -11.828125 10.859375 -10 11.765625 -8.34375 C 12.679688 -6.695312 13.953125 -5.359375 15.578125 -4.328125 C 17.210938 -3.304688 19.304688 -2.816406 21.859375 -2.859375 C 25.078125 -2.953125 27.835938 -3.695312 30.140625 -5.09375 C 32.453125 -6.5 34.210938 -8.421875 35.421875 -10.859375 C 36.628906 -13.304688 37.234375 -16.09375 37.234375 -19.21875 L 37.234375 -39.953125 C 37.234375 -41.441406 37.09375 -42.988281 36.8125 -44.59375 C 36.53125 -46.207031 36.015625 -47.710938 35.265625 -49.109375 C 34.523438 -50.503906 33.4375 -51.597656 32 -52.390625 Z M 41.21875 -52.390625 "/></g></g></g><g fill="#1a1a1a" fill-opacity="1"><g transform="translate(247.027516, 508.140706)"><g><path d="M 34.578125 -52.390625 L 43.796875 -52.390625 C 43.335938 -51.085938 43.015625 -49.65625 42.828125 -48.09375 C 42.640625 -46.539062 42.546875 -44.878906 42.546875 -43.109375 L 42.546875 0 L 38.90625 0 L 3.984375 -47.015625 L 3.984375 -12.5 C 3.984375 -11.007812 4.117188 -9.445312 4.390625 -7.8125 C 4.671875 -6.1875 5.195312 -4.6875 5.96875 -3.3125 C 6.738281 -1.9375 7.820312 -0.832031 9.21875 0 L 0 0 C 0.507812 -1.351562 0.84375 -2.796875 1 -4.328125 C 1.164062 -5.867188 1.25 -7.523438 1.25 -9.296875 L 1.25 -50.71875 L 0 -52.390625 C 1.675781 -52.390625 3.351562 -52.390625 5.03125 -52.390625 C 6.707031 -52.390625 8.382812 -52.390625 10.0625 -52.390625 L 39.8125 -12.296875 L 39.8125 -39.890625 C 39.8125 -41.378906 39.671875 -42.9375 39.390625 -44.5625 C 39.117188 -46.195312 38.609375 -47.710938 37.859375 -49.109375 C 37.117188 -50.503906 36.023438 -51.597656 34.578125 -52.390625 Z M 34.578125 -52.390625 "/></g></g></g><g fill="#1a1a1a" fill-opacity="1"><g transform="translate(295.289099, 508.140706)"><g><path d="M 0 0 C 0.507812 -1.351562 0.84375 -2.796875 1 -4.328125 C 1.164062 -5.867188 1.25 -7.523438 1.25 -9.296875 C 1.25 -10.453125 1.25 -12.160156 1.25 -14.421875 C 1.25 -16.679688 1.25 -19.207031 1.25 -22 C 1.25 -24.800781 1.25 -27.597656 1.25 -30.390625 C 1.25 -33.179688 1.25 -35.707031 1.25 -37.96875 C 1.25 -40.226562 1.25 -41.941406 1.25 -43.109375 C 1.25 -44.878906 1.164062 -46.539062 1 -48.09375 C 0.84375 -49.65625 0.507812 -51.085938 0 -52.390625 C 3.445312 -52.390625 6.90625 -52.390625 10.375 -52.390625 C 13.84375 -52.390625 17.300781 -52.390625 20.75 -52.390625 C 24.382812 -52.390625 27.84375 -51.832031 31.125 -50.71875 C 34.40625 -49.601562 37.328125 -47.9375 39.890625 -45.71875 C 42.453125 -43.507812 44.476562 -40.773438 45.96875 -37.515625 C 47.457031 -34.253906 48.203125 -30.484375 48.203125 -26.203125 C 48.203125 -21.910156 47.457031 -18.132812 45.96875 -14.875 C 44.476562 -11.613281 42.453125 -8.878906 39.890625 -6.671875 C 37.328125 -4.460938 34.40625 -2.796875 31.125 -1.671875 C 27.84375 -0.554688 24.382812 0 20.75 0 C 17.300781 0 13.84375 0 10.375 0 C 6.90625 0 3.445312 0 0 0 Z M 9.296875 -49.671875 L 9.296875 -2.71875 L 20.75 -2.71875 C 23.21875 -2.71875 25.601562 -3.265625 27.90625 -4.359375 C 30.207031 -5.460938 32.265625 -7.023438 34.078125 -9.046875 C 35.898438 -11.066406 37.332031 -13.519531 38.375 -16.40625 C 39.425781 -19.300781 39.953125 -22.566406 39.953125 -26.203125 C 39.953125 -29.828125 39.425781 -33.082031 38.375 -35.96875 C 37.332031 -38.863281 35.898438 -41.320312 34.078125 -43.34375 C 32.265625 -45.375 30.207031 -46.9375 27.90625 -48.03125 C 25.601562 -49.125 23.21875 -49.671875 20.75 -49.671875 Z M 9.296875 -49.671875 "/></g></g></g><g fill="#1a1a1a" fill-opacity="1"><g transform="translate(348.020709, 508.140706)"><g><path d="M 41.21875 -52.390625 C 40.75 -51.085938 40.421875 -49.65625 40.234375 -48.09375 C 40.046875 -46.539062 39.953125 -44.878906 39.953125 -43.109375 L 39.953125 -19 C 39.953125 -15.320312 39.179688 -12.050781 37.640625 -9.1875 C 36.109375 -6.320312 33.898438 -4.070312 31.015625 -2.4375 C 28.128906 -0.8125 24.660156 0 20.609375 0 C 16.554688 0 13.085938 -0.859375 10.203125 -2.578125 C 7.316406 -4.304688 5.101562 -6.671875 3.5625 -9.671875 C 2.019531 -12.679688 1.25 -16.070312 1.25 -19.84375 L 1.25 -43.109375 C 1.25 -44.878906 1.164062 -46.539062 1 -48.09375 C 0.84375 -49.65625 0.507812 -51.085938 0 -52.390625 L 10.546875 -52.390625 C 10.078125 -51.085938 9.75 -49.65625 9.5625 -48.09375 C 9.382812 -46.539062 9.296875 -44.878906 9.296875 -43.109375 L 9.296875 -19.703125 C 9.296875 -17.796875 9.476562 -15.835938 9.84375 -13.828125 C 10.21875 -11.828125 10.859375 -10 11.765625 -8.34375 C 12.679688 -6.695312 13.953125 -5.359375 15.578125 -4.328125 C 17.210938 -3.304688 19.304688 -2.816406 21.859375 -2.859375 C 25.078125 -2.953125 27.835938 -3.695312 30.140625 -5.09375 C 32.453125 -6.5 34.210938 -8.421875 35.421875 -10.859375 C 36.628906 -13.304688 37.234375 -16.09375 37.234375 -19.21875 L 37.234375 -39.953125 C 37.234375 -41.441406 37.09375 -42.988281 36.8125 -44.59375 C 36.53125 -46.207031 36.015625 -47.710938 35.265625 -49.109375 C 34.523438 -50.503906 33.4375 -51.597656 32 -52.390625 Z M 41.21875 -52.390625 "/></g></g></g><g fill="#1a1a1a" fill-opacity="1"><g transform="translate(393.558409, 508.140706)"><g><path d="M 9.296875 -9.296875 C 9.296875 -7.523438 9.382812 -5.867188 9.5625 -4.328125 C 9.75 -2.796875 10.078125 -1.351562 10.546875 0 L 0 0 C 0.507812 -1.351562 0.84375 -2.796875 1 -4.328125 C 1.164062 -5.867188 1.25 -7.523438 1.25 -9.296875 C 1.25 -10.453125 1.25 -12.160156 1.25 -14.421875 C 1.25 -16.679688 1.25 -19.207031 1.25 -22 C 1.25 -24.800781 1.25 -27.597656 1.25 -30.390625 C 1.25 -33.179688 1.25 -35.707031 1.25 -37.96875 C 1.25 -40.226562 1.25 -41.941406 1.25 -43.109375 C 1.25 -44.878906 1.164062 -46.539062 1 -48.09375 C 0.84375 -49.65625 0.507812 -51.085938 0 -52.390625 L 10.546875 -52.390625 C 10.078125 -51.085938 9.75 -49.65625 9.5625 -48.09375 C 9.382812 -46.539062 9.296875 -44.878906 9.296875 -43.109375 L 9.296875 -19.140625 L 27.453125 -42.1875 C 28.804688 -43.957031 29.710938 -45.671875 30.171875 -47.328125 C 30.640625 -48.984375 30.828125 -50.671875 30.734375 -52.390625 L 39.890625 -52.390625 C 38.492188 -51.085938 37.070312 -49.609375 35.625 -47.953125 C 34.1875 -46.304688 32.859375 -44.710938 31.640625 -43.171875 L 23.328125 -32.484375 L 35.703125 -9.296875 C 36.535156 -7.753906 37.507812 -6.097656 38.625 -4.328125 C 39.75 -2.554688 40.753906 -1.113281 41.640625 0 L 30.53125 0 C 30.0625 -2.09375 29.269531 -4.164062 28.15625 -6.21875 L 17.890625 -25.5625 L 9.296875 -14.671875 Z M 9.296875 -9.296875 "/></g></g></g><g fill="#1a1a1a" fill-opacity="1"><g transform="translate(439.585009, 508.140706)"><g/></g></g><g fill="#1a1a1a" fill-opacity="1"><g transform="translate(462.283713, 508.140706)"><g><path d="M 41.21875 -52.390625 C 40.75 -51.085938 40.421875 -49.65625 40.234375 -48.09375 C 40.046875 -46.539062 39.953125 -44.878906 39.953125 -43.109375 L 39.953125 -19 C 39.953125 -15.320312 39.179688 -12.050781 37.640625 -9.1875 C 36.109375 -6.320312 33.898438 -4.070312 31.015625 -2.4375 C 28.128906 -0.8125 24.660156 0 20.609375 0 C 16.554688 0 13.085938 -0.859375 10.203125 -2.578125 C 7.316406 -4.304688 5.101562 -6.671875 3.5625 -9.671875 C 2.019531 -12.679688 1.25 -16.070312 1.25 -19.84375 L 1.25 -43.109375 C 1.25 -44.878906 1.164062 -46.539062 1 -48.09375 C 0.84375 -49.65625 0.507812 -51.085938 0 -52.390625 L 10.546875 -52.390625 C 10.078125 -51.085938 9.75 -49.65625 9.5625 -48.09375 C 9.382812 -46.539062 9.296875 -44.878906 9.296875 -43.109375 L 9.296875 -19.703125 C 9.296875 -17.796875 9.476562 -15.835938 9.84375 -13.828125 C 10.21875 -11.828125 10.859375 -10 11.765625 -8.34375 C 12.679688 -6.695312 13.953125 -5.359375 15.578125 -4.328125 C 17.210938 -3.304688 19.304688 -2.816406 21.859375 -2.859375 C 25.078125 -2.953125 27.835938 -3.695312 30.140625 -5.09375 C 32.453125 -6.5 34.210938 -8.421875 35.421875 -10.859375 C 36.628906 -13.304688 37.234375 -16.09375 37.234375 -19.21875 L 37.234375 -39.953125 C 37.234375 -41.441406 37.09375 -42.988281 36.8125 -44.59375 C 36.53125 -46.207031 36.015625 -47.710938 35.265625 -49.109375 C 34.523438 -50.503906 33.4375 -51.597656 32 -52.390625 Z M 41.21875 -52.390625 "/></g></g></g><g fill="#1a1a1a" fill-opacity="1"><g transform="translate(507.821413, 508.140706)"><g><path d="M 9.21875 0 L 0 0 C 0.507812 -1.351562 0.84375 -2.796875 1 -4.328125 C 1.164062 -5.867188 1.25 -7.523438 1.25 -9.296875 L 1.25 -50.4375 L 0.28125 -52.390625 L 9.359375 -52.390625 L 26.828125 -18.578125 L 44.359375 -52.390625 L 53.71875 -52.390625 C 53.207031 -51.085938 52.867188 -49.65625 52.703125 -48.09375 C 52.546875 -46.539062 52.46875 -44.878906 52.46875 -43.109375 C 52.46875 -41.941406 52.46875 -40.226562 52.46875 -37.96875 C 52.46875 -35.707031 52.46875 -33.179688 52.46875 -30.390625 C 52.46875 -27.597656 52.46875 -24.800781 52.46875 -22 C 52.46875 -19.207031 52.46875 -16.679688 52.46875 -14.421875 C 52.46875 -12.160156 52.46875 -10.453125 52.46875 -9.296875 C 52.46875 -7.523438 52.546875 -5.867188 52.703125 -4.328125 C 52.867188 -2.796875 53.207031 -1.351562 53.71875 0 L 43.109375 0 C 43.617188 -1.351562 43.953125 -2.796875 44.109375 -4.328125 C 44.273438 -5.867188 44.359375 -7.523438 44.359375 -9.296875 L 44.359375 -46.453125 L 25.359375 -9.78125 L 22.28125 -9.78125 L 3.984375 -45.203125 L 3.984375 -12.5 C 3.984375 -11.007812 4.117188 -9.445312 4.390625 -7.8125 C 4.671875 -6.1875 5.195312 -4.6875 5.96875 -3.3125 C 6.738281 -1.9375 7.820312 -0.832031 9.21875 0 Z M 9.21875 0 "/></g></g></g><g fill="#1a1a1a" fill-opacity="1"><g transform="translate(565.930988, 508.140706)"><g><path d="M 28.578125 -52.390625 L 44.15625 -9.21875 C 44.707031 -7.6875 45.390625 -6.09375 46.203125 -4.4375 C 47.023438 -2.78125 47.804688 -1.300781 48.546875 0 L 37.9375 0 C 37.9375 -1.207031 37.691406 -2.648438 37.203125 -4.328125 C 36.710938 -6.003906 36.1875 -7.585938 35.625 -9.078125 C 35.019531 -10.847656 34.320312 -12.40625 33.53125 -13.75 C 32.738281 -15.101562 31.617188 -16.222656 30.171875 -17.109375 C 28.546875 -18.140625 26.707031 -18.828125 24.65625 -19.171875 C 22.613281 -19.523438 20.566406 -19.550781 18.515625 -19.25 C 16.460938 -18.945312 14.625 -18.304688 13 -17.328125 C 11.363281 -16.390625 10.148438 -15.234375 9.359375 -13.859375 C 8.566406 -12.492188 7.847656 -10.945312 7.203125 -9.21875 C 6.316406 -6.75 6.96875 -3.675781 9.15625 0 L 0 0 C 0.789062 -1.300781 1.570312 -2.78125 2.34375 -4.4375 C 3.113281 -6.09375 3.773438 -7.6875 4.328125 -9.21875 L 19.90625 -52.390625 Z M 32 -19.21875 L 21.375 -48.34375 L 10.828125 -19.21875 C 12.878906 -20.519531 15.148438 -21.390625 17.640625 -21.828125 C 20.128906 -22.273438 22.628906 -22.273438 25.140625 -21.828125 C 27.660156 -21.390625 29.945312 -20.519531 32 -19.21875 Z M 32 -19.21875 "/></g></g></g><g fill="#1a1a1a" fill-opacity="1"><g transform="translate(618.872146, 508.140706)"><g><path d="M 9.296875 -9.296875 C 9.296875 -7.523438 9.382812 -5.867188 9.5625 -4.328125 C 9.75 -2.796875 10.078125 -1.351562 10.546875 0 L 0 0 C 0.507812 -1.351562 0.84375 -2.796875 1 -4.328125 C 1.164062 -5.867188 1.25 -7.523438 1.25 -9.296875 C 1.25 -10.453125 1.25 -12.160156 1.25 -14.421875 C 1.25 -16.679688 1.25 -19.207031 1.25 -22 C 1.25 -24.800781 1.25 -27.597656 1.25 -30.390625 C 1.25 -33.179688 1.25 -35.707031 1.25 -37.96875 C 1.25 -40.226562 1.25 -41.941406 1.25 -43.109375 C 1.25 -44.878906 1.164062 -46.539062 1 -48.09375 C 0.84375 -49.65625 0.507812 -51.085938 0 -52.390625 L 10.546875 -52.390625 C 10.078125 -51.085938 9.75 -49.65625 9.5625 -48.09375 C 9.382812 -46.539062 9.296875 -44.878906 9.296875 -43.109375 L 9.296875 -25.359375 L 32.625 -25.359375 L 32.625 -43.109375 C 32.625 -44.878906 32.539062 -46.539062 32.375 -48.09375 C 32.21875 -49.65625 31.878906 -51.085938 31.359375 -52.390625 L 41.921875 -52.390625 C 41.453125 -51.085938 41.125 -49.65625 40.9375 -48.09375 C 40.75 -46.539062 40.65625 -44.878906 40.65625 -43.109375 C 40.65625 -41.941406 40.65625 -40.226562 40.65625 -37.96875 C 40.65625 -35.707031 40.65625 -33.179688 40.65625 -30.390625 C 40.65625 -27.597656 40.65625 -24.800781 40.65625 -22 C 40.65625 -19.207031 40.65625 -16.679688 40.65625 -14.421875 C 40.65625 -12.160156 40.65625 -10.453125 40.65625 -9.296875 C 40.65625 -7.523438 40.75 -5.867188 40.9375 -4.328125 C 41.125 -2.796875 41.453125 -1.351562 41.921875 0 L 31.359375 0 C 31.878906 -1.351562 32.21875 -2.796875 32.375 -4.328125 C 32.539062 -5.867188 32.625 -7.523438 32.625 -9.296875 L 32.625 -22.640625 L 9.296875 -22.640625 Z M 9.296875 -9.296875 "/></g></g></g><g fill="#1a1a1a" fill-opacity="1"><g transform="translate(357.603292, 580.732967)"><g><path d="M 6.71875 0.953125 C 5.457031 0.816406 4.394531 0.414062 3.53125 -0.25 C 2.675781 -0.925781 2.0625 -1.8125 1.6875 -2.90625 C 1.3125 -4 1.195312 -5.226562 1.34375 -6.59375 C 1.488281 -7.925781 1.859375 -9.082031 2.453125 -10.0625 C 3.054688 -11.039062 3.851562 -11.773438 4.84375 -12.265625 C 5.84375 -12.753906 6.976562 -12.929688 8.25 -12.796875 C 9.238281 -12.691406 10.078125 -12.410156 10.765625 -11.953125 C 11.453125 -11.492188 11.988281 -10.910156 12.375 -10.203125 C 12.769531 -9.492188 12.984375 -8.703125 13.015625 -7.828125 L 11.71875 -7.96875 C 11.695312 -8.601562 11.535156 -9.191406 11.234375 -9.734375 C 10.941406 -10.285156 10.53125 -10.734375 10 -11.078125 C 9.476562 -11.429688 8.84375 -11.648438 8.09375 -11.734375 C 7.039062 -11.847656 6.125 -11.6875 5.34375 -11.25 C 4.570312 -10.820312 3.953125 -10.191406 3.484375 -9.359375 C 3.023438 -8.535156 2.734375 -7.566406 2.609375 -6.453125 C 2.484375 -5.316406 2.5625 -4.289062 2.84375 -3.375 C 3.125 -2.46875 3.597656 -1.726562 4.265625 -1.15625 C 4.929688 -0.582031 5.773438 -0.242188 6.796875 -0.140625 C 7.628906 -0.046875 8.351562 -0.140625 8.96875 -0.421875 C 9.59375 -0.710938 10.109375 -1.132812 10.515625 -1.6875 C 10.929688 -2.238281 11.222656 -2.847656 11.390625 -3.515625 L 12.65625 -3.375 C 12.457031 -2.414062 12.082031 -1.59375 11.53125 -0.90625 C 10.976562 -0.226562 10.289062 0.273438 9.46875 0.609375 C 8.644531 0.941406 7.726562 1.054688 6.71875 0.953125 Z M 6.71875 0.953125 "/></g></g></g><g fill="#1a1a1a" fill-opacity="1"><g transform="translate(376.240458, 582.591874)"><g><path d="M 0.109375 0 L 5.953125 -13.046875 L 7.328125 -12.96875 L 11.609375 0.6875 L 10.3125 0.609375 L 9.03125 -3.609375 L 3.1875 -3.953125 L 1.40625 0.078125 Z M 3.59375 -4.9375 L 8.75 -4.625 L 6.578125 -11.734375 L 6.546875 -11.734375 Z M 3.59375 -4.9375 "/></g></g></g><g fill="#1a1a1a" fill-opacity="1"><g transform="translate(393.927225, 583.501537)"><g><path d="M 1.140625 0.015625 L 1.3125 -13.375 L 6.828125 -13.3125 C 8.085938 -13.289062 9.054688 -12.988281 9.734375 -12.40625 C 10.421875 -11.820312 10.757812 -10.988281 10.75 -9.90625 C 10.738281 -9.144531 10.535156 -8.523438 10.140625 -8.046875 C 9.753906 -7.566406 9.222656 -7.210938 8.546875 -6.984375 L 8.546875 -6.953125 C 9.347656 -6.773438 10.003906 -6.40625 10.515625 -5.84375 C 11.023438 -5.28125 11.273438 -4.539062 11.265625 -3.625 C 11.253906 -2.738281 11.0625 -2.019531 10.6875 -1.46875 C 10.3125 -0.914062 9.800781 -0.515625 9.15625 -0.265625 C 8.507812 -0.0234375 7.765625 0.0859375 6.921875 0.078125 Z M 2.53125 -7.421875 L 6.875 -7.375 C 7.632812 -7.363281 8.253906 -7.566406 8.734375 -7.984375 C 9.210938 -8.410156 9.457031 -8.992188 9.46875 -9.734375 C 9.476562 -10.503906 9.238281 -11.109375 8.75 -11.546875 C 8.257812 -11.984375 7.554688 -12.207031 6.640625 -12.21875 L 2.59375 -12.265625 Z M 2.453125 -1.046875 L 6.671875 -1 C 7.640625 -0.988281 8.425781 -1.1875 9.03125 -1.59375 C 9.644531 -2.007812 9.957031 -2.726562 9.96875 -3.75 C 9.976562 -4.59375 9.707031 -5.25 9.15625 -5.71875 C 8.601562 -6.195312 7.859375 -6.445312 6.921875 -6.46875 L 2.515625 -6.515625 Z M 2.453125 -1.046875 "/></g></g></g><g fill="#1a1a1a" fill-opacity="1"><g transform="translate(411.58049, 583.580089)"><g><path d="M 1.140625 -0.046875 L 0.671875 -13.421875 L 6.1875 -13.609375 C 7.445312 -13.648438 8.429688 -13.394531 9.140625 -12.84375 C 9.859375 -12.289062 10.238281 -11.472656 10.28125 -10.390625 C 10.300781 -9.628906 10.128906 -9 9.765625 -8.5 C 9.398438 -8.007812 8.878906 -7.640625 8.203125 -7.390625 L 8.203125 -7.359375 C 9.023438 -7.210938 9.703125 -6.867188 10.234375 -6.328125 C 10.773438 -5.796875 11.0625 -5.070312 11.09375 -4.15625 C 11.125 -3.269531 10.960938 -2.539062 10.609375 -1.96875 C 10.253906 -1.394531 9.757812 -0.96875 9.125 -0.6875 C 8.5 -0.414062 7.765625 -0.265625 6.921875 -0.234375 Z M 2.1875 -7.53125 L 6.53125 -7.6875 C 7.289062 -7.71875 7.898438 -7.953125 8.359375 -8.390625 C 8.816406 -8.835938 9.03125 -9.429688 9 -10.171875 C 8.976562 -10.941406 8.710938 -11.53125 8.203125 -11.9375 C 7.691406 -12.351562 6.976562 -12.546875 6.0625 -12.515625 L 2.015625 -12.375 Z M 2.40625 -1.15625 L 6.625 -1.3125 C 7.59375 -1.34375 8.367188 -1.578125 8.953125 -2.015625 C 9.546875 -2.460938 9.820312 -3.195312 9.78125 -4.21875 C 9.757812 -5.0625 9.460938 -5.707031 8.890625 -6.15625 C 8.316406 -6.601562 7.5625 -6.8125 6.625 -6.78125 L 2.21875 -6.625 Z M 2.40625 -1.15625 "/></g></g></g><g fill="#1a1a1a" fill-opacity="1"><g transform="translate(429.150933, 582.794088)"><g><path d="M 1.203125 -0.078125 L 0.265625 -13.4375 L 1.546875 -13.53125 L 2.484375 -0.171875 Z M 1.203125 -0.078125 "/></g></g></g><g fill="#1a1a1a" fill-opacity="1"><g transform="translate(438.709087, 582.090633)"><g><path d="M 1.140625 -0.125 L -0.296875 -13.4375 L 1.09375 -13.59375 L 9.84375 -3.0625 L 9.890625 -3.0625 L 8.671875 -14.40625 L 9.953125 -14.546875 L 11.390625 -1.234375 L 9.984375 -1.078125 L 1.234375 -11.5625 L 1.203125 -11.5625 L 2.421875 -0.265625 Z M 1.140625 -0.125 "/></g></g></g><g fill="#1a1a1a" fill-opacity="1"><g transform="translate(359.194819, 539.985283)"><g><path d="M 0.890625 0 L 0.890625 -10.40625 L 8 -10.40625 L 8 -9.5625 L 1.890625 -9.5625 L 1.890625 -5.90625 L 7.421875 -5.90625 L 7.421875 -5.0625 L 1.890625 -5.0625 L 1.890625 -0.84375 L 8.125 -0.84375 L 8.125 0 Z M 0.890625 0 "/></g></g></g><g fill="#1a1a1a" fill-opacity="1"><g transform="translate(372.271558, 539.985283)"><g><path d="M 4.625 0.171875 C 3.832031 0.171875 3.113281 0.0390625 2.46875 -0.21875 C 1.832031 -0.476562 1.316406 -0.867188 0.921875 -1.390625 C 0.535156 -1.921875 0.328125 -2.578125 0.296875 -3.359375 L 1.296875 -3.359375 C 1.347656 -2.472656 1.675781 -1.800781 2.28125 -1.34375 C 2.882812 -0.894531 3.664062 -0.671875 4.625 -0.671875 C 5.507812 -0.671875 6.171875 -0.875 6.609375 -1.28125 C 7.046875 -1.695312 7.269531 -2.1875 7.28125 -2.75 C 7.28125 -3.269531 7.148438 -3.671875 6.890625 -3.953125 C 6.628906 -4.242188 6.25 -4.472656 5.75 -4.640625 C 5.25 -4.804688 4.632812 -4.957031 3.90625 -5.09375 C 3.25 -5.21875 2.675781 -5.382812 2.1875 -5.59375 C 1.707031 -5.8125 1.332031 -6.109375 1.0625 -6.484375 C 0.800781 -6.859375 0.671875 -7.335938 0.671875 -7.921875 C 0.671875 -8.523438 0.820312 -9.019531 1.125 -9.40625 C 1.4375 -9.800781 1.851562 -10.097656 2.375 -10.296875 C 2.90625 -10.492188 3.503906 -10.59375 4.171875 -10.59375 C 4.890625 -10.59375 5.523438 -10.472656 6.078125 -10.234375 C 6.628906 -9.992188 7.066406 -9.644531 7.390625 -9.1875 C 7.722656 -8.726562 7.910156 -8.175781 7.953125 -7.53125 L 6.953125 -7.53125 C 6.878906 -8.207031 6.613281 -8.742188 6.15625 -9.140625 C 5.695312 -9.546875 5.035156 -9.75 4.171875 -9.75 C 3.429688 -9.75 2.828125 -9.59375 2.359375 -9.28125 C 1.898438 -8.96875 1.671875 -8.53125 1.671875 -7.96875 C 1.671875 -7.507812 1.785156 -7.148438 2.015625 -6.890625 C 2.253906 -6.628906 2.585938 -6.425781 3.015625 -6.28125 C 3.453125 -6.144531 3.976562 -6.015625 4.59375 -5.890625 C 5.351562 -5.742188 6.007812 -5.554688 6.5625 -5.328125 C 7.113281 -5.097656 7.535156 -4.78125 7.828125 -4.375 C 8.128906 -3.976562 8.28125 -3.457031 8.28125 -2.8125 C 8.28125 -2.25 8.132812 -1.738281 7.84375 -1.28125 C 7.5625 -0.832031 7.148438 -0.476562 6.609375 -0.21875 C 6.066406 0.0390625 5.40625 0.171875 4.625 0.171875 Z M 4.625 0.171875 "/></g></g></g><g fill="#1a1a1a" fill-opacity="1"><g transform="translate(385.450231, 539.985283)"><g><path d="M 3.828125 0 L 3.828125 -9.5625 L 0.28125 -9.5625 L 0.28125 -10.40625 L 8.375 -10.40625 L 8.375 -9.5625 L 4.828125 -9.5625 L 4.828125 0 Z M 3.828125 0 "/></g></g></g><g fill="#1a1a1a" fill-opacity="1"><g transform="translate(398.526972, 539.985283)"><g><path d="M 1.21875 0.078125 C 1.0625 0.078125 0.914062 0.0195312 0.78125 -0.09375 C 0.644531 -0.207031 0.578125 -0.363281 0.578125 -0.5625 C 0.578125 -0.757812 0.644531 -0.910156 0.78125 -1.015625 C 0.914062 -1.128906 1.0625 -1.1875 1.21875 -1.1875 C 1.382812 -1.1875 1.53125 -1.128906 1.65625 -1.015625 C 1.789062 -0.910156 1.859375 -0.757812 1.859375 -0.5625 C 1.859375 -0.363281 1.789062 -0.207031 1.65625 -0.09375 C 1.53125 0.0195312 1.382812 0.078125 1.21875 0.078125 Z M 1.21875 0.078125 "/></g></g></g><g fill="#1a1a1a" fill-opacity="1"><g transform="translate(405.400261, 539.985283)"><g><path d="M 0.421875 0 C 0.421875 -0.945312 0.660156 -1.734375 1.140625 -2.359375 C 1.628906 -2.992188 2.257812 -3.53125 3.03125 -3.96875 C 3.613281 -4.320312 4.144531 -4.648438 4.625 -4.953125 C 5.101562 -5.265625 5.488281 -5.601562 5.78125 -5.96875 C 6.070312 -6.34375 6.21875 -6.789062 6.21875 -7.3125 C 6.21875 -7.695312 6.128906 -8.050781 5.953125 -8.375 C 5.785156 -8.695312 5.546875 -8.953125 5.234375 -9.140625 C 4.921875 -9.335938 4.535156 -9.4375 4.078125 -9.4375 C 3.566406 -9.4375 3.125 -9.320312 2.75 -9.09375 C 2.382812 -8.863281 2.097656 -8.554688 1.890625 -8.171875 C 1.679688 -7.785156 1.578125 -7.335938 1.578125 -6.828125 L 0.640625 -6.828125 C 0.640625 -7.441406 0.769531 -8.003906 1.03125 -8.515625 C 1.289062 -9.035156 1.675781 -9.453125 2.1875 -9.765625 C 2.707031 -10.078125 3.34375 -10.234375 4.09375 -10.234375 C 4.707031 -10.234375 5.242188 -10.113281 5.703125 -9.875 C 6.171875 -9.644531 6.53125 -9.316406 6.78125 -8.890625 C 7.039062 -8.460938 7.171875 -7.953125 7.171875 -7.359375 C 7.171875 -6.796875 7.050781 -6.316406 6.8125 -5.921875 C 6.582031 -5.523438 6.273438 -5.175781 5.890625 -4.875 C 5.503906 -4.582031 5.085938 -4.304688 4.640625 -4.046875 C 4.203125 -3.796875 3.773438 -3.523438 3.359375 -3.234375 C 2.941406 -2.953125 2.582031 -2.617188 2.28125 -2.234375 C 1.976562 -1.847656 1.769531 -1.378906 1.65625 -0.828125 L 1.65625 -0.796875 L 7.171875 -0.796875 L 7.171875 0 Z M 0.421875 0 "/></g></g></g><g fill="#1a1a1a" fill-opacity="1"><g transform="translate(417.501345, 539.985283)"><g><path d="M 4.34375 0.171875 C 3.476562 0.171875 2.765625 -0.0625 2.203125 -0.53125 C 1.640625 -1 1.21875 -1.625 0.9375 -2.40625 C 0.664062 -3.195312 0.53125 -4.070312 0.53125 -5.03125 C 0.53125 -5.75 0.601562 -6.421875 0.75 -7.046875 C 0.90625 -7.671875 1.140625 -8.222656 1.453125 -8.703125 C 1.773438 -9.179688 2.171875 -9.554688 2.640625 -9.828125 C 3.117188 -10.097656 3.6875 -10.234375 4.34375 -10.234375 C 4.988281 -10.234375 5.550781 -10.097656 6.03125 -9.828125 C 6.507812 -9.554688 6.90625 -9.179688 7.21875 -8.703125 C 7.53125 -8.222656 7.757812 -7.671875 7.90625 -7.046875 C 8.0625 -6.421875 8.140625 -5.75 8.140625 -5.03125 C 8.140625 -4.070312 8.003906 -3.195312 7.734375 -2.40625 C 7.460938 -1.625 7.046875 -1 6.484375 -0.53125 C 5.929688 -0.0625 5.21875 0.171875 4.34375 0.171875 Z M 4.34375 -0.625 C 5 -0.625 5.535156 -0.816406 5.953125 -1.203125 C 6.367188 -1.597656 6.675781 -2.125 6.875 -2.78125 C 7.070312 -3.445312 7.171875 -4.195312 7.171875 -5.03125 C 7.171875 -5.863281 7.070312 -6.609375 6.875 -7.265625 C 6.675781 -7.929688 6.367188 -8.457031 5.953125 -8.84375 C 5.535156 -9.238281 5 -9.4375 4.34375 -9.4375 C 3.6875 -9.4375 3.144531 -9.238281 2.71875 -8.84375 C 2.300781 -8.457031 1.992188 -7.929688 1.796875 -7.265625 C 1.597656 -6.609375 1.5 -5.863281 1.5 -5.03125 C 1.5 -4.195312 1.597656 -3.445312 1.796875 -2.78125 C 1.992188 -2.125 2.300781 -1.597656 2.71875 -1.203125 C 3.144531 -0.816406 3.6875 -0.625 4.34375 -0.625 Z M 4.34375 -0.625 "/></g></g></g><g fill="#1a1a1a" fill-opacity="1"><g transform="translate(430.592637, 539.985283)"><g><path d="M 0.421875 0 C 0.421875 -0.945312 0.660156 -1.734375 1.140625 -2.359375 C 1.628906 -2.992188 2.257812 -3.53125 3.03125 -3.96875 C 3.613281 -4.320312 4.144531 -4.648438 4.625 -4.953125 C 5.101562 -5.265625 5.488281 -5.601562 5.78125 -5.96875 C 6.070312 -6.34375 6.21875 -6.789062 6.21875 -7.3125 C 6.21875 -7.695312 6.128906 -8.050781 5.953125 -8.375 C 5.785156 -8.695312 5.546875 -8.953125 5.234375 -9.140625 C 4.921875 -9.335938 4.535156 -9.4375 4.078125 -9.4375 C 3.566406 -9.4375 3.125 -9.320312 2.75 -9.09375 C 2.382812 -8.863281 2.097656 -8.554688 1.890625 -8.171875 C 1.679688 -7.785156 1.578125 -7.335938 1.578125 -6.828125 L 0.640625 -6.828125 C 0.640625 -7.441406 0.769531 -8.003906 1.03125 -8.515625 C 1.289062 -9.035156 1.675781 -9.453125 2.1875 -9.765625 C 2.707031 -10.078125 3.34375 -10.234375 4.09375 -10.234375 C 4.707031 -10.234375 5.242188 -10.113281 5.703125 -9.875 C 6.171875 -9.644531 6.53125 -9.316406 6.78125 -8.890625 C 7.039062 -8.460938 7.171875 -7.953125 7.171875 -7.359375 C 7.171875 -6.796875 7.050781 -6.316406 6.8125 -5.921875 C 6.582031 -5.523438 6.273438 -5.175781 5.890625 -4.875 C 5.503906 -4.582031 5.085938 -4.304688 4.640625 -4.046875 C 4.203125 -3.796875 3.773438 -3.523438 3.359375 -3.234375 C 2.941406 -2.953125 2.582031 -2.617188 2.28125 -2.234375 C 1.976562 -1.847656 1.769531 -1.378906 1.65625 -0.828125 L 1.65625 -0.796875 L 7.171875 -0.796875 L 7.171875 0 Z M 0.421875 0 "/></g></g></g><g fill="#1a1a1a" fill-opacity="1"><g transform="translate(442.69372, 539.985283)"><g><path d="M 5.28125 0 L 5.28125 -2.515625 L 0.328125 -2.515625 L 0.328125 -3.4375 L 5.28125 -10.0625 L 6.265625 -10.0625 L 6.265625 -3.3125 L 7.78125 -3.3125 L 7.78125 -2.515625 L 6.265625 -2.515625 L 6.265625 0 Z M 1.1875 -3.3125 L 5.28125 -3.3125 L 5.28125 -8.84375 Z M 1.1875 -3.3125 "/></g></g></g></svg>